<?xml version="1.0" encoding="UTF-8"?>
<svg xmlns="http://www.w3.org/2000/svg" style="display: none;">

    <symbol id="mytheme-icon-bars" width="30" height="30" viewBox="0 0 30 30" fill="none" stroke="#FAFBFC" xmlns="http://www.w3.org/2000/svg">
      <!-- 
      Code inside the <svg> tag from the source SVG icon file
      this is typically everything between the <svg> tags 
      (but not the SVG tag itself, that's replaced by <symbol> above)
      You can transfer any attributes (i.e. ViewBox="0 0 0 0") to the <symbol> tag
      -->
        <g clip-path="url(#clip0_327_134)">
        <path d="M5.00098 7.5H25.001M5.00098 15H25.001M5.00098 22.5H25.001"  stroke-width="2.5" stroke-linecap="round" stroke-linejoin="round"/>
        </g>
        <defs>
        <clipPath id="clip0_327_134">
        <rect width="30" height="30" fill="white"/>
        </clipPath>
        </defs>

    </symbol>

    <symbol id="mytheme-icon-search" width="30" height="30" viewBox="0 0 30 30" fill="none" xmlns="http://www.w3.org/2000/svg" stroke="#FAFBFC" >
      <!-- SVG code here. Add more <symbol> blocks as needed.
      -->
      
    <g clip-path="url(#clip0_327_129)">
    <path d="M26.25 26.25L20.8211 20.8211L20 19.8737M20 19.8737C21.5465 18.2956 22.5 16.1341 22.5 13.75C22.5 8.91751 18.5825 5 13.75 5C8.91751 5 5 8.91751 5 13.75C5 18.5825 8.91751 22.5 13.75 22.5C16.1984 22.5 18.4119 21.4944 20 19.8737Z"  stroke-width="2.5" stroke-linecap="round" stroke-linejoin="round"/>
    </g>
    <defs>
    <clipPath id="clip0_327_129">
    <rect width="30" height="30" fill="white"/>
    </clipPath>
    </defs>

    </symbol>
    <symbol id="discourse-expand" viewBox="0 0 1792 1792">
        <path d="M883 1056q0 13-10 23l-332 332 144 144q19 19 19 45t-19 45-45 19h-448q-26 0-45-19t-19-45v-448q0-26 19-45t45-19 45 19l144 144 332-332q10-10 23-10t23 10l114 114q10 10 10 23zm781-864v448q0 26-19 45t-45 19-45-19l-144-144-332 332q-10 10-23 10t-23-10l-114-114q-10-10-10-23t10-23l332-332-144-144q-19-19-19-45t19-45 45-19h448q26 0 45 19t19 45z"></path>
    </symbol>
</svg>